HIERARCHY
ROOT Hips
{
	OFFSET 0.000000 0.000000 0.000000
	CHANNELS 6 Xposition Yposition Zposition Zrotation Yrotation Xrotation 
	JOINT LHipJoint
	{
		OFFSET 0.000000 0.000000 0.000000
		CHANNELS 3 Zrotation Yrotation Xrotation
		JOINT LeftUpLeg
		{
			OFFSET 1.363060 -1.794630 0.839290
			CHANNELS 3 Zrotation Yrotation Xrotation
			JOINT LeftLeg
			{
				OFFSET 2.448110 -6.726130 0.000000
				CHANNELS 3 Zrotation Yrotation Xrotation
				JOINT LeftFoot
				{
					OFFSET 2.562200 -7.039590 0.000000
					CHANNELS 3 Zrotation Yrotation Xrotation
					JOINT LeftToeBase
					{
						OFFSET 0.157640 -0.433110 2.322550
						CHANNELS 3 Zrotation Yrotation Xrotation
						End Site
						{
							OFFSET 0.000000 0.000000 0.000000
						}
					}
				}
			}
		}
	}
	JOINT RHipJoint
	{
		OFFSET 0.000000 0.000000 0.000000
		CHANNELS 3 Zrotation Yrotation Xrotation
		JOINT RightUpLeg
		{
			OFFSET -1.305520 -1.794630 0.839290
			CHANNELS 3 Zrotation Yrotation Xrotation
			JOINT RightLeg
			{
				OFFSET -2.542530 -6.985550 0.000000
				CHANNELS 3 Zrotation Yrotation Xrotation
				JOINT RightFoot
				{
					OFFSET -2.568260 -7.056230 0.000000
					CHANNELS 3 Zrotation Yrotation Xrotation
					JOINT RightToeBase
					{
						OFFSET -0.164730 -0.452590 2.363150
						CHANNELS 3 Zrotation Yrotation Xrotation
						End Site
						{
							OFFSET 0.000000 0.000000 0.000000
						}
					}
				}
			}
		}
	}
}
MOTION
Frames: 22
Frame Time: 0.008333
-0.998479 17.032706 -1.399128 37.052352 85.311445 50.623537 -8.886675 1.404167 4.946067 -14.958436 -3.431218 -34.431679 -3.577160 -0.514692 11.372272 -0.896639 -6.061926 4.084328 -0.702400 -0.000000 -27.667699 10.471874 -4.708205 1.633825 9.820096 -5.579623 -3.393322 2.054149 -1.745284 25.106338 1.015638 10.740199 1.668653 1.368800 -0.000000 -58.301000
-0.843931 17.047722 -1.369967 40.399232 85.174963 53.746782 -8.768818 1.532020 4.890722 -15.460095 -3.172323 -33.723431 -3.633178 -0.503583 11.693930 -0.901593 -6.228561 3.604668 -0.693700 0.000000 -26.808299 10.767175 -4.760340 1.525376 9.127445 -6.473267 -4.297505 1.782346 -1.979416 27.419241 0.991362 11.213042 3.675958 1.801500 0.000000 -61.428300
-0.692998 17.062222 -1.342664 43.041000 85.001962 56.177493 -8.672749 1.646425 4.848638 -15.880042 -2.975089 -32.979911 -3.682271 -0.501580 11.944936 -0.900735 -6.374621 3.047790 -0.673700 0.000000 -25.819400 11.035964 -4.787444 1.400146 8.463044 -7.393118 -5.313730 1.500426 -2.199092 29.860342 0.940027 11.680421 5.785027 2.300899 0.000000 -63.941700
-0.545717 17.075853 -1.316913 45.008461 84.788542 57.947018 -8.594726 1.747576 4.818972 -16.234934 -2.837347 -32.200475 -3.724981 -0.509373 12.110803 -0.892525 -6.470590 2.456731 -0.641099 0.000000 -24.755100 11.281028 -4.786568 1.260247 7.817364 -8.325828 -6.434732 1.213716 -2.401091 32.412597 0.857999 12.072560 7.922172 2.838100 0.000000 -65.830500
-0.401839 17.088463 -1.292787 46.239424 84.538455 58.997112 -8.537388 1.835563 4.797052 -16.534206 -2.724116 -31.409313 -3.761177 -0.525082 12.203221 -0.877930 -6.516647 1.861705 -0.599700 -0.000000 -23.681300 11.496314 -4.758379 1.114298 7.208263 -9.231740 -7.647672 0.929710 -2.583458 35.045288 0.744621 12.284502 9.999894 3.357500 0.000000 -67.133500
-0.261196 17.100007 -1.269978 46.772169 84.248756 59.365525 -8.497363 1.912688 4.779451 -16.793895 -2.613095 -30.615162 -3.791778 -0.548131 12.220545 -0.856833 -6.500723 1.291506 -0.551499 0.000000 -22.668700 11.682703 -4.703003 0.967055 6.637173 -10.087354 -8.938510 0.654331 -2.746895 37.730869 0.602568 12.214199 11.925783 3.786300 -0.000000 -67.963300
-0.123362 17.110651 -1.248553 46.591798 83.925007 59.039335 -8.478836 1.980461 4.759229 -17.019095 -2.455112 -29.846340 -3.816815 -0.575549 12.187566 -0.831557 -6.442340 0.758212 -0.501800 0.000000 -21.782700 11.833781 -4.624852 0.827403 6.128492 -10.856212 -10.292127 0.392561 -2.893574 40.435479 0.435733 11.753632 13.611158 4.039900 -0.000000 -68.465800
0.011881 17.120550 -1.227964 45.846749 83.558771 58.161884 -8.473720 2.042534 4.735033 -17.225971 -2.247979 -29.091615 -3.837834 -0.608159 12.090468 -0.801025 -6.322580 0.278723 -0.450300 0.000000 -21.072900 11.957229 -4.523940 0.695497 5.667282 -11.535535 -11.695446 0.146136 -3.027338 43.138647 0.248114 10.838852 14.967285 4.047700 0.000001 -68.685800
0.144832 17.129973 -1.208096 44.623479 83.150954 56.817394 -8.481829 2.100677 4.703073 -17.417950 -1.970983 -28.357539 -3.855255 -0.644675 11.939919 -0.766327 -6.151819 -0.146920 -0.399300 0.000000 -20.566100 12.053118 -4.403484 0.575088 5.260980 -12.111181 -13.135151 -0.083982 -3.151683 45.812702 0.041923 9.429044 15.920647 3.762700 -0.000000 -68.633700
0.275703 17.139215 -1.188669 43.053450 82.700194 55.133926 -8.499754 2.156369 4.662074 -17.598126 -1.625242 -27.636290 -3.869581 -0.685118 11.734640 -0.727440 -5.929658 -0.520980 -0.349201 -0.000000 -20.264400 12.125401 -4.265169 0.466870 4.905830 -12.580471 -14.598561 -0.297669 -3.269794 48.431796 -0.182029 7.536300 16.411559 3.181701 0.000000 -68.244000
0.404705 17.148601 -1.169731 41.225217 82.210828 53.197972 -8.528788 2.209823 4.610045 -17.761584 -1.205294 -26.929441 -3.880626 -0.728334 11.487006 -0.685565 -5.672298 -0.855578 -0.301099 -0.000000 -20.144200 12.173817 -4.112411 0.372933 4.609527 -12.937901 -16.073891 -0.494479 -3.383614 50.965780 -0.423646 5.220385 16.403375 2.347800 -0.000000 -67.408901
0.531917 17.158322 -1.151133 39.252121 81.684726 51.120537 -8.566343 2.260805 4.548171 -17.904675 -0.731220 -26.223827 -3.888113 -0.774724 11.193846 -0.640259 -5.378274 -1.160459 -0.254600 0.000000 -20.166100 12.201896 -3.946956 0.292503 4.366972 -13.187100 -17.549766 -0.673543 -3.494482 53.384420 -0.681694 2.597254 15.885093 1.350600 -0.000000 -66.008699
0.657403 17.168557 -1.132865 37.210152 81.126454 48.977108 -8.611902 2.308441 4.477898 -18.020617 -0.223171 -25.510213 -3.891307 -0.824259 10.856026 -0.591395 -5.050548 -1.447303 -0.209399 0.000000 -20.280600 12.211182 -3.771657 0.225566 4.177404 -13.330155 -19.016040 -0.833475 -3.602664 55.655568 -0.952227 -0.178988 14.879690 0.308000 -0.000000 -63.953100
0.781234 17.179434 -1.114959 35.152512 80.540710 46.821186 -8.665356 2.351658 4.401261 -18.101938 0.295693 -24.779891 -3.889167 -0.876845 10.473420 -0.538634 -4.689683 -1.725793 -0.165299 0.000000 -20.436700 12.202867 -3.589659 0.172014 4.038993 -13.370387 -20.463867 -0.972794 -3.707476 57.747634 -1.227302 -2.933188 13.445956 -0.656500 -0.000000 -61.212700
0.903457 17.190923 -1.097497 33.105012 79.933013 44.680533 -8.727481 2.389629 4.320050 -18.141767 0.807284 -24.030149 -3.880681 -0.931872 10.050422 -0.481980 -4.299602 -2.005034 -0.122900 0.000000 -20.587500 12.177295 -3.404620 0.132617 3.951905 -13.310388 -21.887630 -1.090288 -3.807212 59.632234 -1.494908 -5.493832 11.675720 -1.440100 0.000000 -57.838400
1.024139 17.202989 -1.080502 31.082287 79.306918 42.571430 -8.798892 2.422144 4.235894 -18.135267 1.297402 -23.259765 -3.865006 -0.988548 9.590652 -0.421484 -3.883111 -2.289492 -0.082400 0.000000 -20.698400 12.134930 -3.219818 0.108104 3.914885 -13.154406 -23.282233 -1.185171 -3.899339 61.285163 -1.740121 -7.713986 9.685245 -1.979600 -0.000000 -53.971200
1.143363 17.215436 -1.063870 29.111155 78.663516 40.520677 -8.876876 2.449165 4.150826 -18.083779 1.744581 -22.456960 -3.841525 -1.047218 9.084000 -0.356122 -3.429339 -2.574802 -0.043701 -0.000000 -20.756200 12.078931 -3.036764 0.096845 3.917261 -12.913038 -24.641653 -1.256844 -3.981887 62.689114 -1.946663 -9.481093 7.598991 -2.258200 -0.000000 -49.819600
1.261315 17.228141 -1.047672 27.170432 78.006917 38.509043 -8.964570 2.472258 4.063047 -17.986261 2.169117 -21.641471 -3.810679 -1.105049 8.553869 -0.288417 -2.963587 -2.864245 -0.009000 -0.000001 -20.750900 12.007596 -2.858940 0.102136 3.966641 -12.588582 -25.965208 -1.305303 -4.051146 63.830625 -2.101053 -10.736070 5.544227 -2.306300 -0.000000 -45.667800
1.378109 17.240781 -1.031665 25.289775 77.335760 36.563426 -9.057869 2.492349 3.972604 -17.850800 2.563346 -20.800956 -3.772917 -1.162455 7.987027 -0.217969 -2.476682 -3.145024 0.022300 0.000000 -20.705300 11.925300 -2.686184 0.121193 4.049029 -12.195828 -27.244742 -1.330591 -4.105870 64.703108 -2.192511 -11.453157 3.628942 -2.179400 -0.000000 -41.812900
1.494004 17.253150 -1.015754 23.462774 76.651449 34.677136 -9.157789 2.511947 3.876387 -17.683657 2.957904 -19.953053 -3.730107 -1.217030 7.402561 -0.147965 -1.994872 -3.413086 0.048700 -0.000000 -20.641500 11.832403 -2.520249 0.156264 4.166548 -11.741409 -28.478658 -1.333437 -4.143845 65.303937 -2.216401 -11.650847 1.942091 -1.946701 -0.000000 -38.550300
1.609228 17.264917 -0.999690 21.706000 75.954369 32.864347 -9.262467 2.533066 3.771700 -17.495093 3.374206 -19.103346 -3.684492 -1.267801 6.805607 -0.080756 -1.532972 -3.658760 0.069800 -0.000000 -20.595000 11.731710 -2.361384 0.207082 4.312953 -11.236714 -29.663130 -1.314874 -4.164652 65.636056 -2.173325 -11.373998 0.539336 -1.669900 0.000000 -36.115200
1.723992 17.275844 -0.983211 20.039415 75.244720 31.141465 -9.370079 2.557693 3.655931 -17.295727 3.833881 -18.254801 -3.638590 -1.314113 6.198939 -0.018833 -1.105984 -3.871865 0.085900 0.000000 -20.602000 11.626018 -2.209367 0.272868 4.480541 -10.693692 -30.793462 -1.276293 -4.168674 65.706570 -2.069497 -10.691274 -0.557885 -1.393500 -0.000000 -34.648500
